<?xml version="1.0" encoding="UTF-8"?>
<svg id="Camada_2" data-name="Camada 2" xmlns="http://www.w3.org/2000/svg" viewBox="0 0 3507.95 2152.04">
  <defs>
    <style>
      .cls-1 {
        fill: none;
      }

      .cls-1, .cls-2, .cls-3 {
        stroke-width: 0px;
      }

      .cls-2 {
        fill: #fff;
      }

      .cls-3 {
        fill: #ff0;
        fill-rule: evenodd;
      }
    </style>
  </defs>
  <g id="Camada_1-2" data-name="Camada 1">
    <g>
      <path class="cls-3" d="M2722.95,1685.94l-4.35,7.28-161.04-16.3-45.7,46.58,17.77,143.06-99.21,86.53-148.11-65.27-57.86,30.18-27.31,141.55-121.09,51.64-120.7-107.85-64.35,10.82-69.72,126.18-131.12,11.69-81.46-139.87-64.55-9.59-105.3,98.46-128.32-29.4-34.26-158.19-58.42-29.07-130.57,61.1-112.95-67.61,16.3-161.04-46.58-45.7-143.06,17.77L.31,1537.03h1039.95c173.76,198.76,429.13,324.33,713.87,324.33s540.11-125.57,713.87-324.33h1039.95l-785,148.91h0Z"/>
      <path class="cls-3" d="M2662.93,468.16l40.54-5.03,86.54,99.21-65.27,148.12,30.18,57.85,62.42,12.04h-237.07c-21.34-38.56-45.31-75.46-71.62-110.49l154.29-201.7h0ZM1814.31,0l81.46,139.87,64.55,9.59,105.3-98.46,128.32,29.4,8.02,37.05-166.03,217.05c-90.12-28.45-186.06-43.81-285.59-43.81s-195.47,15.36-285.59,43.81l-162.99-213.08,5.58-28.92,121.1-51.64,120.7,107.85,64.34-10.82,69.72-126.18L1814.31,0h0ZM992.02,669.86c-26.31,35.04-50.29,71.93-71.62,110.49h-260.54l90.44-19.58,29.07-58.42-61.11-130.57,67.61-112.96,48.48,4.91,157.67,206.13h0Z"/>
      <g>
        <path class="cls-2" d="M207.58,858.26l-93.14,346.79H0l93.14-346.79h114.44ZM499.37,858.26l-5.94,22.79c-6.44,24.27-15.36,33.19-49.54,57.96l-115.43,81.74,143.67,184.29h-150.6l-136.24-184.29,160.02-116.92c9.41-6.94,13.87-14.37,16.35-22.79l5.94-22.79h131.78Z"/>
        <path class="cls-2" d="M723.79,858.26l-93.14,346.79h-114.44l93.14-346.79h114.44Z"/>
        <path class="cls-2" d="M1204.33,920.68l-59.45,221.94c-9.41,34.18-45.08,62.42-79.27,62.42h-296.75c-32.2-1.98-51.03-29.23-42.11-62.42l59.45-221.94c9.41-34.18,45.08-62.42,79.27-62.42h296.75c32.2,1.98,51.03,29.23,42.11,62.42ZM1082.46,947.93h-188.75l-45.08,167.45h188.75l45.08-167.45Z"/>
        <path class="cls-2" d="M1277.65,920.68c9.41-34.18,45.08-62.42,79.27-62.42h339.35l-12.39,22.29c-19.32,35.67-47.56,67.38-83.23,67.38h-216l-24.27,91.65h204.6l-9.91,18.33c-15.85,29.23-39.14,55.49-68.37,55.49h-146.15l-24.77,91.65h-114.44l76.29-284.36Z"/>
        <path class="cls-2" d="M1859.76,858.26l-93.14,346.79h-114.44l93.14-346.79h114.44Z"/>
        <path class="cls-2" d="M2347.23,858.26l-12.38,44.59c-13.87,52.51-49.54,92.64-108.49,92.64h-31.21l12.39-47.56h-177.85l-45.08,167.45h303.19l-11.89,22.29c-19.82,35.67-47.56,67.38-83.23,67.38h-287.83c-32.2-1.98-51.03-29.23-42.11-62.42l59.45-221.94c9.41-34.18,45.08-62.42,79.26-62.42h345.79Z"/>
        <path class="cls-2" d="M2534.5,858.26l-93.14,346.79h-114.44l93.14-346.79h114.44Z"/>
        <path class="cls-2" d="M3003.64,920.68l-76.29,284.36h-114.44l68.86-257.12h-174.88l-68.86,257.12h-114.44l93.14-346.79h344.8c32.2,1.98,51.03,29.23,42.11,62.42Z"/>
        <path class="cls-2" d="M3502.02,1205.05h-527.11l16.84-24.28c24.77-35.17,56.97-62.42,95.61-62.42h279.41l-18.33-139.7c-2.97-23.28-13.87-30.72-41.12-30.72s-43.1,7.43-57.47,30.72l-23.28,37.65c-19.82,32.2-44.59,62.42-78.77,62.42h-86.7l111.96-158.04c21.8-31.71,51.03-62.42,85.21-62.42h146.64c34.18,0,46.57,30.72,51.52,62.42l45.58,284.36Z"/>
      </g>
      <g>
        <path class="cls-2" d="M10.81,1444.03v-12.8l15.2-7.4h69.8c6,0,9-3,9-9v-6c0-3.07-.7-5.67-2.1-7.8-1.4-2.13-4.03-3.73-7.9-4.8l-70.2-19.2c-4.93-1.47-8.27-4-10-7.6-1.73-3.6-2.6-7.4-2.6-11.4v-27.8c0-8.53,2.23-15.03,6.7-19.5,4.47-4.47,10.97-6.7,19.5-6.7h99.8v15.6l-15.2,4.6h-61.2c-3.07,0-5.53.93-7.4,2.8s-2.8,4.33-2.8,7.4v4.8c0,6.4,3.4,10.6,10.2,12.6l68.8,19.2c5.07,1.47,8.63,3.73,10.7,6.8,2.07,3.07,3.1,7.13,3.1,12.2v27.8c0,8.53-2.23,15.03-6.7,19.5s-10.97,6.7-19.5,6.7H10.81Z"/>
        <path class="cls-2" d="M170.81,1444.03v-140h126.8v15.6l-15.2,4.6h-72.2v40.8h64v15.4l-15.2,4.8h-48.8v38.6h89.4v15.4l-15,4.8h-113.8Z"/>
        <path class="cls-2" d="M350.81,1444.03c-9.6,0-16.9-2.5-21.9-7.5s-7.5-12.3-7.5-21.9v-110.6h39.8v107.4c0,3.47,1.27,6.47,3.8,9,2.53,2.53,5.53,3.8,9,3.8h49.6c3.6,0,6.67-1.27,9.2-3.8,2.53-2.53,3.8-5.53,3.8-9v-107.4h39.8v110.6c0,9.6-2.5,16.9-7.5,21.9s-12.3,7.5-21.9,7.5h-96.2Z"/>
        <path class="cls-2" d="M585.8,1444.03c-9.6,0-16.9-2.5-21.9-7.5s-7.5-12.3-7.5-21.9v-81.2c0-9.6,2.5-16.9,7.5-21.9s12.3-7.5,21.9-7.5h114.4v15.6l-15.2,4.6h-76.6c-3.47.27-6.37,1.6-8.7,4-2.33,2.4-3.5,5.33-3.5,8.8v74.2c0,3.07.93,5.73,2.8,8,1.87,2.27,4.13,3.8,6.8,4.6h95.4v12.6l-15.2,7.6h-100.2Z"/>
        <path class="cls-2" d="M752.4,1444.03h-41l38.4-110.6c1.6-4.53,3.13-8.6,4.6-12.2,1.47-3.6,3.23-6.67,5.3-9.2,2.07-2.53,4.63-4.5,7.7-5.9,3.07-1.4,7-2.1,11.8-2.1h56.4c4.8,0,8.7.7,11.7,2.1,3,1.4,5.57,3.37,7.7,5.9,2.13,2.53,3.9,5.6,5.3,9.2,1.4,3.6,2.9,7.67,4.5,12.2l38.4,110.6h-41l-11.4-32.6h-87l-11.4,32.6ZM770.4,1392.23h73.8l-19-55.6c-1.2-3.33-2.8-6.3-4.8-8.9-2-2.6-4.73-3.9-8.2-3.9h-9.8c-3.47,0-6.2,1.3-8.2,3.9-2,2.6-3.53,5.57-4.6,8.9l-19.2,55.6Z"/>
        <path class="cls-2" d="M962.4,1444.03h-39.4v-140h117.2c2.8.27,5.43,1.03,7.9,2.3,2.47,1.27,4.63,2.9,6.5,4.9,1.87,2,3.33,4.23,4.4,6.7,1.07,2.47,1.6,5.1,1.6,7.9v33.4c0,5.07-1.7,9.23-5.1,12.5-3.4,3.27-7.57,5.37-12.5,6.3,3.07,1.87,5.77,4.43,8.1,7.7,2.33,3.27,4.63,7.03,6.9,11.3l25.2,47h-47l-23-44.8c-1.73-3.47-3.6-6.07-5.6-7.8-2-1.73-4.73-2.6-8.2-2.6h-37v55.2ZM962.4,1323.83v43.6h49.4c6.93,0,10.4-3.47,10.4-10.4v-22.8c0-6.93-3.47-10.4-10.4-10.4h-49.4Z"/>
        <path class="cls-2" d="M1141.79,1444.03h-39.4v-140h117.2c2.8.27,5.43,1.03,7.9,2.3,2.47,1.27,4.63,2.9,6.5,4.9,1.87,2,3.33,4.23,4.4,6.7,1.07,2.47,1.6,5.1,1.6,7.9v33.4c0,5.07-1.7,9.23-5.1,12.5-3.4,3.27-7.57,5.37-12.5,6.3,3.07,1.87,5.77,4.43,8.1,7.7,2.33,3.27,4.63,7.03,6.9,11.3l25.2,47h-47l-23-44.8c-1.73-3.47-3.6-6.07-5.6-7.8-2-1.73-4.73-2.6-8.2-2.6h-37v55.2ZM1141.79,1323.83v43.6h49.4c6.93,0,10.4-3.47,10.4-10.4v-22.8c0-6.93-3.47-10.4-10.4-10.4h-49.4Z"/>
        <path class="cls-2" d="M1307.19,1444.03c-9.6,0-16.9-2.5-21.9-7.5s-7.5-12.3-7.5-21.9v-81.2c0-9.6,2.5-16.9,7.5-21.9s12.3-7.5,21.9-7.5h98.2c9.6,0,16.9,2.5,21.9,7.5s7.5,12.3,7.5,21.9v81.2c0,9.6-2.5,16.9-7.5,21.9s-12.3,7.5-21.9,7.5h-98.2ZM1330.39,1323.83c-3.47,0-6.47,1.27-9,3.8-2.53,2.54-3.8,5.54-3.8,9v74.6c0,3.6,1.27,6.67,3.8,9.2,2.53,2.53,5.53,3.8,9,3.8h51.8c3.47,0,6.47-1.27,9-3.8,2.53-2.53,3.8-5.6,3.8-9.2v-74.6c0-3.46-1.27-6.46-3.8-9-2.53-2.53-5.53-3.8-9-3.8h-51.8Z"/>
        <path class="cls-2" d="M1515.39,1444.03v-140h126.8v15.6l-15.2,4.6h-72.2v40.8h64v15.4l-15.2,4.8h-48.8v38.6h89.4v15.4l-15,4.8h-113.8Z"/>
        <path class="cls-2" d="M1705.79,1444.03h-39.8v-110.6c0-4,.77-7.8,2.3-11.4,1.53-3.6,3.6-6.73,6.2-9.4,2.6-2.67,5.7-4.77,9.3-6.3,3.6-1.53,7.4-2.3,11.4-2.3h64c4.13,0,7.9.97,11.3,2.9,3.4,1.93,6.23,4.5,8.5,7.7,2.27-3.2,5.1-5.77,8.5-7.7,3.4-1.93,7.17-2.9,11.3-2.9h63.8c4,0,7.8.77,11.4,2.3,3.6,1.53,6.73,3.63,9.4,6.3,2.67,2.67,4.77,5.8,6.3,9.4,1.53,3.6,2.3,7.4,2.3,11.4v110.6h-39.8v-107.4c0-3.46-1.27-6.46-3.8-9-2.53-2.53-5.53-3.8-9-3.8h-27.6c-3.6,0-6.67,1.27-9.2,3.8-2.53,2.54-3.8,5.54-3.8,9v107.4h-39.6v-107.4c0-3.46-1.3-6.46-3.9-9-2.6-2.53-5.63-3.8-9.1-3.8h-27.6c-3.47,0-6.47,1.27-9,3.8-2.53,2.54-3.8,5.54-3.8,9v107.4Z"/>
        <path class="cls-2" d="M1998.79,1444.03h-25.6v-140h117.2c2.8.27,5.43,1.03,7.9,2.3,2.47,1.27,4.63,2.9,6.5,4.9,1.87,2,3.33,4.23,4.4,6.7,1.07,2.47,1.6,5.1,1.6,7.9v28c0,4.13-1.13,7.7-3.4,10.7-2.27,3-5.27,5.23-9,6.7,2.8.27,5.4,1.1,7.8,2.5,2.4,1.4,4.5,3.17,6.3,5.3,1.8,2.13,3.23,4.5,4.3,7.1,1.07,2.6,1.6,5.3,1.6,8.1v28c0,2.8-.53,5.43-1.6,7.9-1.07,2.47-2.53,4.7-4.4,6.7-1.87,2-4.03,3.63-6.5,4.9-2.47,1.27-5.1,2.03-7.9,2.3h-99.2ZM2012.59,1323.83v38.4h49.4c6.93,0,10.4-3.47,10.4-10.4v-17.6c0-6.93-3.47-10.4-10.4-10.4h-49.4ZM2079.99,1393.83c0-6.93-3.47-10.4-10.4-10.4h-57v40.8h57c6.93,0,10.4-3.47,10.4-10.4v-20Z"/>
        <path class="cls-2" d="M2174.59,1444.03c-9.6,0-16.9-2.5-21.9-7.5s-7.5-12.3-7.5-21.9v-81.2c0-9.6,2.5-16.9,7.5-21.9s12.3-7.5,21.9-7.5h98.2c9.6,0,16.9,2.5,21.9,7.5s7.5,12.3,7.5,21.9v81.2c0,9.6-2.5,16.9-7.5,21.9s-12.3,7.5-21.9,7.5h-98.2ZM2197.79,1323.83c-3.47,0-6.47,1.27-9,3.8s-3.8,5.54-3.8,9v74.6c0,3.6,1.27,6.67,3.8,9.2,2.53,2.53,5.53,3.8,9,3.8h51.8c3.47,0,6.47-1.27,9-3.8s3.8-5.6,3.8-9.2v-74.6c0-3.46-1.27-6.46-3.8-9-2.53-2.53-5.53-3.8-9-3.8h-51.8Z"/>
        <path class="cls-2" d="M2359.79,1444.03h-41l38.4-110.6c1.6-4.53,3.13-8.6,4.6-12.2,1.47-3.6,3.23-6.67,5.3-9.2,2.07-2.53,4.63-4.5,7.7-5.9,3.07-1.4,7-2.1,11.8-2.1h56.4c4.8,0,8.7.7,11.7,2.1,3,1.4,5.57,3.37,7.7,5.9,2.13,2.53,3.9,5.6,5.3,9.2,1.4,3.6,2.9,7.67,4.5,12.2l38.4,110.6h-41l-11.4-32.6h-87l-11.4,32.6ZM2377.79,1392.23h73.8l-19-55.6c-1.2-3.33-2.8-6.3-4.8-8.9-2-2.6-4.73-3.9-8.2-3.9h-9.8c-3.47,0-6.2,1.3-8.2,3.9-2,2.6-3.53,5.57-4.6,8.9l-19.2,55.6Z"/>
        <path class="cls-2" d="M2525.39,1444.03v-12.8l15.2-7.4h69.8c6,0,9-3,9-9v-6c0-3.07-.7-5.67-2.1-7.8-1.4-2.13-4.03-3.73-7.9-4.8l-70.2-19.2c-4.93-1.47-8.27-4-10-7.6-1.73-3.6-2.6-7.4-2.6-11.4v-27.8c0-8.53,2.23-15.03,6.7-19.5s10.97-6.7,19.5-6.7h99.8v15.6l-15.2,4.6h-61.2c-3.07,0-5.53.93-7.4,2.8s-2.8,4.33-2.8,7.4v4.8c0,6.4,3.4,10.6,10.2,12.6l68.8,19.2c5.07,1.47,8.63,3.73,10.7,6.8,2.07,3.07,3.1,7.13,3.1,12.2v27.8c0,8.53-2.23,15.03-6.7,19.5s-10.97,6.7-19.5,6.7h-107.2Z"/>
        <path class="cls-2" d="M2774.59,1444.03h-39.8v-110.6c0-4,.77-7.8,2.3-11.4,1.53-3.6,3.6-6.73,6.2-9.4,2.6-2.67,5.7-4.77,9.3-6.3,3.6-1.53,7.4-2.3,11.4-2.3h64c4.13,0,7.9.97,11.3,2.9,3.4,1.93,6.23,4.5,8.5,7.7,2.27-3.2,5.1-5.77,8.5-7.7,3.4-1.93,7.17-2.9,11.3-2.9h63.8c4,0,7.8.77,11.4,2.3,3.6,1.53,6.73,3.63,9.4,6.3,2.67,2.67,4.77,5.8,6.3,9.4,1.53,3.6,2.3,7.4,2.3,11.4v110.6h-39.8v-107.4c0-3.46-1.27-6.46-3.8-9-2.53-2.53-5.53-3.8-9-3.8h-27.6c-3.6,0-6.67,1.27-9.2,3.8-2.53,2.54-3.8,5.54-3.8,9v107.4h-39.6v-107.4c0-3.46-1.3-6.46-3.9-9-2.6-2.53-5.63-3.8-9.1-3.8h-27.6c-3.47,0-6.47,1.27-9,3.8-2.53,2.54-3.8,5.54-3.8,9v107.4Z"/>
        <path class="cls-2" d="M3133.19,1333.43l38.4,110.6h-41l-11.4-32.6h-87l-11.4,32.6h-41l38.4-110.6c1.6-4.53,3.13-8.6,4.6-12.2,1.47-3.6,3.23-6.67,5.3-9.2,2.07-2.53,4.63-4.5,7.7-5.9,3.07-1.4,7-2.1,11.8-2.1h56.4c4.8,0,8.7.7,11.7,2.1,3,1.4,5.57,3.37,7.7,5.9,2.13,2.53,3.9,5.6,5.3,9.2,1.4,3.6,2.9,7.67,4.5,12.2ZM3112.59,1392.23l-19-55.4c-1.2-3.47-2.8-6.5-4.8-9.1-2-2.6-4.73-3.9-8.2-3.9h-9.8c-3.47,0-6.2,1.3-8.2,3.9-2,2.6-3.53,5.63-4.6,9.1l-19.2,55.4h73.8ZM3063.39,1282.03l-14.8.4v-12.8c0-3.33,1.07-5.93,3.2-7.8,2.13-1.87,4.93-2.8,8.4-2.8,2.53,0,5.67.7,9.4,2.1,3.73,1.4,7.33,2.83,10.8,4.3,1.6.67,3.07,1.27,4.4,1.8,1.33.53,2.4.93,3.2,1.2v-7.2l14.8-.4v13c0,3.07-1.03,5.57-3.1,7.5-2.07,1.93-4.77,2.9-8.1,2.9-2.53,0-5.2-.53-8-1.6-2.8-1.07-5.6-2.27-8.4-3.6-2.27-1.07-4.4-2-6.4-2.8s-3.8-1.33-5.4-1.6v7.4Z"/>
        <path class="cls-2" d="M3217.79,1444.03c-9.6,0-16.9-2.5-21.9-7.5s-7.5-12.3-7.5-21.9v-81.2c0-9.6,2.5-16.9,7.5-21.9s12.3-7.5,21.9-7.5h98.2c9.6,0,16.9,2.5,21.9,7.5s7.5,12.3,7.5,21.9v81.2c0,9.6-2.5,16.9-7.5,21.9s-12.3,7.5-21.9,7.5h-98.2ZM3240.99,1323.83c-3.47,0-6.47,1.27-9,3.8s-3.8,5.54-3.8,9v74.6c0,3.6,1.27,6.67,3.8,9.2,2.53,2.53,5.53,3.8,9,3.8h51.8c3.47,0,6.47-1.27,9-3.8s3.8-5.6,3.8-9.2v-74.6c0-3.46-1.27-6.46-3.8-9-2.53-2.53-5.53-3.8-9-3.8h-51.8Z"/>
        <path class="cls-2" d="M3370.98,1444.03v-12.8l15.2-7.4h69.8c6,0,9-3,9-9v-6c0-3.07-.7-5.67-2.1-7.8-1.4-2.13-4.03-3.73-7.9-4.8l-70.2-19.2c-4.93-1.47-8.27-4-10-7.6-1.73-3.6-2.6-7.4-2.6-11.4v-27.8c0-8.53,2.23-15.03,6.7-19.5s10.97-6.7,19.5-6.7h99.8v15.6l-15.2,4.6h-61.2c-3.07,0-5.53.93-7.4,2.8s-2.8,4.33-2.8,7.4v4.8c0,6.4,3.4,10.6,10.2,12.6l68.8,19.2c5.07,1.47,8.63,3.73,10.7,6.8,2.07,3.07,3.1,7.13,3.1,12.2v27.8c0,8.53-2.23,15.03-6.7,19.5s-10.97,6.7-19.5,6.7h-107.2Z"/>
      </g>
      <path class="cls-1" d="M1256.47,512.25v-7.73c-3.51,2.55-7,5.12-10.46,7.73h10.46Z"/>
      <g>
        <path class="cls-2" d="M1120.73,462.48c20.6,26.93,59.13,32.06,86.06,11.46,26.93-20.6,32.06-59.13,11.46-86.06-20.6-26.93-59.13-32.06-86.06-11.46-26.93,20.6-32.06,59.13-11.46,86.06Z"/>
        <path class="cls-2" d="M981.66,182.38l1.32-1.01,1.32-1.01c65.84-50.36,136.42-94.97,211.74-133.82l-22.41-29.3c-73.1,40.79-142.54,86.1-208.38,135.87-.82.62-1.64,1.24-2.46,1.86-.81.63-1.62,1.26-2.44,1.89-65.26,50.52-127.17,105.68-185.67,165.56l22.41,29.3c57.21-62.53,118.73-118.97,184.57-169.33Z"/>
        <path class="cls-2" d="M956.11,151.35c.82-.63,1.64-1.27,2.46-1.9.83-.63,1.65-1.25,2.48-1.88,65.84-49.77,135.27-95.1,208.32-135.92l-4.65-6.07c-3.02-3.96-8.61-2.37-12.16-.91-77.27,31.87-147.29,73.62-211.23,122.25-63.66,48.99-122.29,105.64-173.27,171.87-2.34,3.04-5.34,8.01-2.3,11.97l4.64,6.07c58.51-59.82,120.43-114.96,185.7-165.49Z"/>
        <polygon class="cls-2" points="1083.06 339.74 1084.23 338.85 1083.06 338.85 1083.06 339.74"/>
        <path class="cls-2" d="M1496.96,439.92l-244.3-319.37c-75.3,38.7-145.92,83.26-211.84,133.68l-1.32,1.01-1.32,1.01c-65.92,50.43-127.41,106.92-184.46,169.48l231.61,302.78c14.57-4.41,29.16-8.61,43.78-12.58l-5.7-7.45c-7.47-9.76-11.34-20.38-12.3-31.23l-135.92-177.69c-10.27-13.41-14.11-29.8-12.03-45.4,2.08-15.59,10.07-30.4,23.49-40.67l96.42-73.76v-.89h1.17l12.12-9.27,109.71-83.92c13.41-10.26,29.8-14.1,45.39-12.03,15.6,2.08,30.41,10.07,40.67,23.49l135.92,177.69c10.22,3.76,19.46,10.27,26.92,20.04l9.02,11.79c7.29,6.3,15.2,6.09,23.67-.02,3.5-2.69,7.02-5.37,10.53-8.05,4.23-3.24,8.2-6.32-1.23-18.64Z"/>
        <path class="cls-2" d="M1029.69,245.17l1.32-1.01,1.32-1.01c65.84-50.36,136.41-94.97,211.74-133.82l-15.43-20.17c-75.31,38.7-145.93,83.26-211.85,133.68l-1.32,1.01-1.32,1.01c-65.92,50.43-127.41,106.92-184.47,169.48l15.43,20.17c57.21-62.53,118.74-118.97,184.57-169.33Z"/>
        <path class="cls-2" d="M1005.67,213.78l1.32-1.01,1.32-1.01c65.83-50.36,136.41-94.97,211.74-133.82l-15.43-20.17c-75.31,38.69-145.92,83.25-211.84,133.68l-1.33,1.01-1.32,1.01c-65.92,50.43-127.41,106.92-184.46,169.48l15.43,20.17c57.21-62.53,118.74-118.97,184.57-169.33Z"/>
        <path class="cls-2" d="M1289.79,481.74c5-3.22,10.04-6.39,15.14-9.5,17.61-10.73,35.79-20.79,54.6-30.11,15.5-7.69,32.21-11.9,47.93-11.28l-2.79-3.64-123.62-161.62c-7.93-10.36-19.37-16.53-31.43-18.14-12.06-1.61-24.72,1.36-35.07,9.28l-107.35,82.12-2.36,1.81-21.77,16.65-87.95,67.27c-10.36,7.92-16.53,19.37-18.14,31.42-1.61,12.06,1.36,24.72,9.28,35.08l126.41,165.26c3.52-15.34,11.96-30.36,23.43-43.31,2.91-3.29,5.85-6.52,8.81-9.74,11.05-12.02,22.43-23.58,34.12-34.68,4.37-4.15,8.78-8.22,13.23-12.24l169.4,223.98h154.23l-226.12-298.61ZM1216.39,486.5c-33.66,25.75-81.82,19.34-107.57-14.33-25.75-33.66-19.34-81.83,14.33-107.58,33.66-25.75,81.82-19.34,107.57,14.33,25.75,33.66,19.34,81.83-14.33,107.58Z"/>
        <path class="cls-2" d="M1132.18,376.42c-26.93,20.6-32.06,59.13-11.46,86.06,20.6,26.93,59.13,32.06,86.06,11.46,26.93-20.6,32.06-59.13,11.46-86.06-20.6-26.93-59.13-32.06-86.06-11.46Z"/>
      </g>
      <g>
        <path class="cls-2" d="M2372.21,462.48c-20.6,26.93-59.13,32.06-86.06,11.46-26.93-20.6-32.06-59.13-11.46-86.06,20.6-26.93,59.13-32.06,86.06-11.46,26.93,20.6,32.06,59.13,11.46,86.06Z"/>
        <path class="cls-2" d="M2511.27,182.38l-1.32-1.01-1.32-1.01c-65.84-50.36-136.42-94.97-211.74-133.82l22.41-29.3c73.1,40.79,142.54,86.1,208.38,135.87.82.62,1.64,1.24,2.46,1.86.81.63,1.62,1.26,2.44,1.89,65.26,50.52,127.17,105.68,185.67,165.56l-22.41,29.3c-57.21-62.53-118.73-118.97-184.57-169.33Z"/>
        <path class="cls-2" d="M2536.82,151.35c-.82-.63-1.64-1.27-2.46-1.9-.83-.63-1.65-1.25-2.48-1.88-65.84-49.77-135.27-95.1-208.32-135.92l4.65-6.07c3.02-3.96,8.61-2.37,12.16-.91,77.27,31.87,147.29,73.63,211.23,122.25,63.66,48.99,122.29,105.64,173.27,171.87,2.34,3.04,5.34,8.01,2.3,11.97l-4.64,6.07c-58.51-59.82-120.43-114.96-185.7-165.49Z"/>
        <polygon class="cls-2" points="2409.87 339.74 2408.7 338.85 2409.87 338.85 2409.87 339.74"/>
        <path class="cls-2" d="M1995.98,439.92l244.3-319.37c75.3,38.7,145.92,83.26,211.84,133.68l1.32,1.01,1.32,1.01c65.92,50.43,127.41,106.92,184.46,169.48l-231.61,302.78c-14.57-4.41-29.16-8.61-43.78-12.58l5.7-7.45c7.47-9.76,11.34-20.38,12.3-31.23l135.92-177.69c10.27-13.41,14.11-29.8,12.03-45.4-2.08-15.59-10.07-30.4-23.49-40.67l-96.42-73.76v-.89s-1.17,0-1.17,0l-12.12-9.27-109.71-83.92c-13.41-10.26-29.8-14.1-45.39-12.03-15.6,2.08-30.41,10.07-40.67,23.49l-135.92,177.69c-10.22,3.76-19.46,10.27-26.92,20.04l-9.02,11.79c-7.29,6.3-15.2,6.09-23.67-.02-3.5-2.69-7.02-5.37-10.53-8.05-4.23-3.24-8.2-6.32,1.23-18.64Z"/>
        <path class="cls-2" d="M2463.24,245.17l-1.32-1.01-1.32-1.01c-65.84-50.36-136.41-94.97-211.74-133.82l15.43-20.17c75.31,38.7,145.93,83.26,211.85,133.68l1.32,1.01,1.32,1.01c65.92,50.43,127.41,106.92,184.47,169.48l-15.43,20.17c-57.21-62.53-118.74-118.97-184.57-169.33Z"/>
        <path class="cls-2" d="M2487.26,213.78l-1.32-1.01-1.32-1.01c-65.83-50.36-136.41-94.97-211.74-133.82l15.43-20.17c75.31,38.69,145.92,83.25,211.84,133.68l1.33,1.01,1.32,1.01c65.92,50.43,127.41,106.92,184.46,169.48l-15.43,20.17c-57.21-62.53-118.74-118.97-184.57-169.33Z"/>
        <path class="cls-2" d="M1977.02,780.35h154.23s169.4-223.98,169.4-223.98c4.45,4.02,8.87,8.09,13.23,12.24,11.69,11.1,23.06,22.66,34.12,34.68,2.96,3.22,5.9,6.46,8.81,9.74,11.48,12.95,19.92,27.97,23.43,43.31l126.41-165.26c7.92-10.35,10.88-23.02,9.28-35.08-1.61-12.06-7.78-23.5-18.14-31.42l-87.95-67.27-21.77-16.65-2.36-1.81-107.35-82.12c-10.36-7.92-23.01-10.89-35.07-9.28-12.05,1.61-23.5,7.78-31.43,18.14l-123.63,161.62-2.79,3.64c15.72-.62,32.43,3.59,47.93,11.28,18.81,9.32,36.99,19.38,54.6,30.11,5.1,3.11,10.14,6.28,15.14,9.5l-226.12,298.61ZM2262.21,378.93c25.75-33.66,73.91-40.08,107.57-14.33,33.66,25.75,40.08,73.91,14.33,107.58-25.75,33.66-73.91,40.08-107.57,14.33-33.66-25.75-40.08-73.91-14.33-107.58Z"/>
        <path class="cls-2" d="M2360.75,376.42c26.93,20.6,32.06,59.13,11.46,86.06-20.6,26.93-59.13,32.06-86.06,11.46-26.93-20.6-32.06-59.13-11.46-86.06,20.6-26.93,59.13-32.06,86.06-11.46Z"/>
      </g>
    </g>
  </g>
</svg>